# xmcd
#
# Track frame offsets:
#	183
#	13853
#	28498
#	42605
#	54893
#	69063
#	80885
#	90568
#	109173
#	122318
#	135955
#	149368
#	163308
#	175323
#	191338
#	202263
#	213895
#	232798
#	245610
#	256218
#	271115
#	283950
#	297900
#	309975
#
# Disc length: 4285
#
# Revision: 1
# Processed by: cddbd v1.5.1PL0 Copyright (c) Steve Scherf et al.
# Submitted via: EasyCDDAExtractor 5.0.5.1
# Normalized: r0:DSETVAR1
#
DISCID=5e10bb18
DTITLE=Various Artist - Country Gems
DYEAR=1900
DGENRE=Country
TTITLE0=Glen Campbell - Honey Come Back
TTITLE1=Crystal Gayle - Cry Me A River
TTITLE2=Kenny Rogers - Daytime Friends
TTITLE3=Tex Ritter - The Wayward Wind
TTITLE4=Bobbie Gentry - Raindrops Keep Falling On My Head
TTITLE5=Carl Jackson - Duelin' Banjos
TTITLE6=George Jones - The Race Is On
TTITLE7=Juice Newton - Angel of the Mornimg
TTITLE8=Tex Williams - Life Gits Tee - Jus Don't It
TTITLE9=Ferlin Huskey - Tumbling Tumbleweeds
TTITLE10=Dottie West - A Lesson in Leavin'
TTITLE11=Tennessee Ernie Ford - Mule Train
TTITLE12=Sonny James - Young Love
TTITLE13=Billie Jo Spears - Sing Me an Old Fasioned Song
TTITLE14=Willie Nelson - Hello Walls
TTITLE15=Faron Young - Country Girl
TTITLE16=Slim Whitman - Home on the Range
TTITLE17=Anne Murray - Destiny
TTITLE18=Skeets McDonald - I Got A New Field To Plough
TTITLE19=Olivia Newton-John - Take Me Home Country Roads
TTITLE20=Anita Carter - Loving Him Was Easier
TTITLE21=Hoyt Axton - Jambalaya (On The Bayou)
TTITLE22=Wanda Jackson - Stand By Your Man
TTITLE23=Jean Shepard - Mercy
EXTD=
EXTT0=
EXTT1=
EXTT2=
EXTT3=
EXTT4=
EXTT5=
EXTT6=
EXTT7=
EXTT8=
EXTT9=
EXTT10=
EXTT11=
EXTT12=
EXTT13=
EXTT14=
EXTT15=
EXTT16=
EXTT17=
EXTT18=
EXTT19=
EXTT20=
EXTT21=
EXTT22=
EXTT23=
PLAYORDER=
